<svg xmlns="http://www.w3.org/2000/svg" viewBox="0 0 2000 1500"><rect width="307.5" height="56.2" x="1513.8" y="965.5" fill="#fff"/><path fill="#422826" d="M1827.8,987.6h-319.8c-1.8,0-3.3-1.5-3.3-3.3s1.5-3.3,3.3-3.3h319.8c1.8,0,3.3,1.5,3.3,3.3s-1.5,3.3-3.3,3.3Z"/><path fill="#422826" d="M1827.8,1004.1h-319.8c-1.8,0-3.3-1.5-3.3-3.3s1.5-3.3,3.3-3.3h319.8c1.8,0,3.3,1.5,3.3,3.3s-1.5,3.3-3.3,3.3Z"/><path fill="#41a2f9" d="M608.9,1274.6s2.4-22.8,6.6-59.1c0,0-15.1-467.7,93.7-550.9,29.3-22.4,65.8-22.5,94.1-17.5,25.9,4.6,44.9,13.5,44.9,13.5l132.2,12.8s18.1,1,41.6,4.6c34.5,5.3,80.8,16.3,99.5,38.4,28.9,34.2,58.9,148.8,71.3,212.6,31.3,160.3,25.7,345.6,25.7,345.6h-609.5Z"/><path fill="#fff" d="M1021.9,678c-1.7,31.7-13.1,64.9-51.5,71.6-70.2,12.2-145-26.4-167.2-102.5,25.9,4.6,44.9,13.5,44.9,13.5l132.2,12.8s18.1,1,41.6,4.6Z"/><path fill="#422826" d="M1201.4,980.8c-1.5,0-2.9-1.1-3.2-2.6l-32.9-160.1c-.4-1.8.8-3.5,2.6-3.9,1.8-.4,3.5.8,3.9,2.6l32.9,160.1c.4,1.8-.8,3.5-2.6,3.9-.2,0-.4,0-.7,0Z"/><path fill="#ff9167" d="M1013.9,595.6l-19.5,87.2-3.1,13.9s-78.3,42.9-140.4-30.2l1.3-131.6,7.6,2.9,154,57.9Z"/><path fill="#422826" d="M1119.5,519.2c53.8-24.5,48-108.8,45.2-129.3,72.3-23.5,103.8-122.7,30.5-106.9-74.1-80.2-238.5-102.1-312.9-23.4-127.7-19.6-152.4,173.5-53.1,231,99.3,57.5,290.4,28.7,290.4,28.7Z"/><path fill="#ff9167" d="M1141.2,397.5c21.7,114-40,262.8-122.9,266.7-94.5,4.4-161.1-68.5-168.5-113-56.7-8.8-42-82.3-15.4-95.8,43.3-21.9,62.7,28.2,62.7,28.2,0,0,80.9-45.7,60.3-102,109.5,77.7,183.8,15.9,183.8,15.9Z"/><path fill="#fff" d="M1061.2,570c-4.5,21.1-32.3,37.9-61.4,31.6-29.2-6.3-48.7-33.3-44.2-54.3,4.5-21.1,25.3-11.1,54.4-4.9,29.2,6.3,55.7,6.5,51.2,27.6Z"/><circle cx="1081.4" cy="491.8" r="18.7" fill="#422826" transform="rotate(-54.1 1082.03 491.774)"/><path fill="#422826" d="M1002.8,474.8c-2.2,10.1-12.1,16.6-22.3,14.4-10.1-2.2-16.6-12.1-14.4-22.3,2.2-10.1,12.1-16.6,22.3-14.4,10.1,2.2,16.6,12.1,14.4,22.3Z"/><ellipse cx="1093.7" cy="445.4" fill="#422826" rx="12.7" ry="19.8" transform="rotate(-77.8 1094.346 445.137)"/><ellipse cx="994.5" cy="424" fill="#422826" rx="12.7" ry="19.8" transform="rotate(-77.8 995.191 423.855)"/><path fill="#422826" d="M1020.2,524.7c-.1,0-.3,0-.4,0-1.8,0-3.3-1.5-3.3-3.4,0-1.8,1.6-3.3,3.4-3.3,2.8,0,6.5-.4,8.3-2.9,1.5-2.1,1.5-5.5,0-9.7-.6-1.7.3-3.6,2.1-4.2,1.7-.6,3.6.3,4.2,2,2.8,8.1,1,13-1,15.8-1.9,2.6-5.7,5.6-13.3,5.6Z"/><path fill="#422826" d="M998.7,667.4c0,0-.2,0-.2,0-.8,0-19.3-1.4-42.5-8.2-21.5-6.3-51.1-18.8-69.8-42-1.1-1.4-.9-3.5.5-4.6,1.4-1.1,3.5-.9,4.6.5,33.9,42.1,106.9,47.8,107.7,47.8,1.8.1,3.2,1.7,3.1,3.5-.1,1.7-1.6,3.1-3.3,3.1Z"/><path fill="#422826" d="M846.2,505.1c-.4,0-.9,0-1.3,0-1.8-.1-3.2-1.7-3.1-3.5.1-1.8,1.7-3.2,3.5-3.1,3.5.2,7.2-.9,10-3.1,2.8-2.2,4.7-5.5,5.4-8.9.3-1.8,2-3,3.8-2.7,1.8.3,3,2,2.7,3.8-.9,5.1-3.7,9.8-7.8,13-3.7,2.9-8.4,4.5-13.2,4.5Z"/><path fill="#fff" d="M1017.4,754.7l44.5-39.4c103.8,0,229.3,72.8,229.3,72.8,59.5-88.2,160.9-116.8,160.9-116.8l56,52.4-233.4,196.7-257.2-165.6Z"/><path fill="#ffc933" d="M1021.8,745.4l259.4,82.9c11.9,3.8,24.9,2.3,35.6-4.2l192.5-116.6c5.6-3.4,12.5,1.4,11.3,7.8l-69.1,363.1c-3.1,16.4-13.6,30.5-28.5,38.2l-180.4,93.3c-11.4,5.9-24.5,7.5-37,4.6l-285-67.4c-14.5-3.4-23.4-18.1-19.8-32.5l86.8-350c3.7-15,19.4-23.8,34.2-19.1Z"/><path fill="#fff" d="M1295.5,1145.2c-.7,0-1.4-.2-2-.7-1-.8-1.5-2.1-1.3-3.3,4.6-22.3-1.3-37-18-44.8-1.4-.6-2.1-2.1-1.9-3.6l30.6-173.1c.2-1.1.9-2,1.9-2.4,24.1-10.8,38.2-29.4,43-56.8.2-.9.7-1.8,1.5-2.3l85.5-52.1c1.1-.6,2.4-.6,3.4,0,1.1.6,1.7,1.8,1.6,3-1.3,19.3.9,31.7,6.4,36.8,2.7,2.5,6.4,3.4,11.3,2.7,1-.1,2.1.2,2.8.9.7.7,1.1,1.8,1,2.8l-25.9,197.3c-.2,1.3-1.1,2.4-2.3,2.7-12.9,3.9-20,13.4-21.9,29.2-.1,1.1-.8,2-1.7,2.5l-112.4,60.6c-.5.3-1,.4-1.6.4ZM1279.4,1091.5c16.2,8.6,23.1,23.4,20.5,44.3l105-56.6c2.4-16.6,10.6-27.5,24.3-32.4l25.1-191.2c-5,0-9.2-1.6-12.5-4.7-6.6-6.1-9.4-17.5-8.9-35.8l-78.9,48c-5.3,28-20.4,48-44.9,59.5l-29.9,168.9Z"/><path fill="#fff" d="M1151.7,1151.8c-.4,0-.7,0-1.1-.2l-151-50.7c-1.5-.5-2.5-2.1-2.2-3.7,3.5-20.4-5.6-25.9-12.7-28.3-1.5-.5-2.5-2.1-2.2-3.7l31.6-197.3c.3-1.8,2-3,3.8-2.7,14,2.1,23.7-10.8,30.4-40.5.2-.9.8-1.7,1.6-2.2.8-.5,1.8-.6,2.7-.3l126.5,42.1c1.5.5,2.4,2,2.2,3.5-2.1,17.6,6.2,43.7,36.5,59.2,1.3.7,2,2.1,1.7,3.5l-30.5,169.8c-.2,1.1-.9,2-2,2.5-19.5,8.1-30,23-32,45.7,0,1-.6,1.9-1.5,2.5-.5.4-1.2.5-1.8.5ZM1004.4,1095.6l144.5,48.5c3-22.2,14.4-37.8,33.9-46.4l29.8-165.6c-11.2-6.2-21-15-27.7-25.1-7.7-11.5-11.2-24.2-10.3-36.9l-120.6-40.2c-4.7,19.4-13.3,42.3-32.9,42.3-.3,0-.5,0-.8,0l-30.7,191.5c14.5,6.2,16.4,20.1,14.9,31.9Z"/><path fill="#ff9167" d="M877.8,963.3s25.4-58.4,36.4-77.2c11-18.7,102.5-26.5,133.4-30.9s31,40.8-34.7,54c0,0,43.5,2.2,61.4,15.8,9.5,7.2,15.2,30.5,17.4,50.3,2.1,19,7.3,80.4-20.9,90.4-34.2,12.1-71.6-18.7-71.6-18.7l-103.6,48.5-17.6-132.3Z"/><path fill="#41a2f9" d="M709.1,664.6c-100.3,92.6-163.1,242.5-202.8,343.9-39.7,101.4-14.3,200.6,143.3,189.6,157.6-11,278.9-89.3,278.9-89.3l-48-179.3-153.8,15.1-17.6-280Z"/><path fill="#ff9167" d="M1494,885.1c-35.8-28.6-70.5-9.9-76.1,18.7-5.5,28.7-22,103.6,30.9,116.8,52.9,13.2,67.2-117.9,45.2-135.6Z"/><path fill="#422826" d="M1503.9,929.2c-.3,0-.7,0-1-.2l-62.9-19.9c-1.7-.6-2.7-2.4-2.2-4.2.6-1.7,2.4-2.7,4.2-2.2l62.9,19.9c1.7.6,2.7,2.4,2.2,4.2-.4,1.4-1.7,2.3-3.2,2.3Z"/><path fill="#422826" d="M1499.5,963.4c-.2,0-.5,0-.7,0l-67.3-15.5c-1.8-.4-2.9-2.2-2.5-4,.4-1.8,2.2-2.9,4-2.5l67.3,15.5c1.8.4,2.9,2.2,2.5,4-.4,1.5-1.7,2.6-3.2,2.6Z"/><path fill="#422826" d="M1488.5,997.6c-.2,0-.4,0-.6,0l-56.2-10c-1.8-.3-3-2-2.7-3.8.3-1.8,2.1-3,3.8-2.7l56.2,10c1.8.3,3,2,2.7,3.8-.3,1.6-1.7,2.7-3.3,2.7Z"/><path fill="#422826" d="M1218.7,1219.2c-.2,0-.4,0-.7,0-1.8-.4-3-2.1-2.6-3.9l77-385.5c.4-1.8,2.1-3,3.9-2.6,1.8.4,3,2.1,2.6,3.9l-77,385.5c-.3,1.6-1.7,2.7-3.2,2.7Z"/><rect width="308.6" height="57.3" x="1469.7" y="1200.3" fill="#fff"/><path fill="#422826" d="M1792.9,1224.6h-329.9c-1.8,0-3.3-1.5-3.3-3.3s1.5-3.3,3.3-3.3h329.9c1.8,0,3.3,1.5,3.3,3.3s-1.5,3.3-3.3,3.3Z"/><path fill="#422826" d="M1792.9,1242.2h-329.9c-1.8,0-3.3-1.5-3.3-3.3s1.5-3.3,3.3-3.3h329.9c1.8,0,3.3,1.5,3.3,3.3s-1.5,3.3-3.3,3.3Z"/><path fill="#41a2f9" d="M1801.5,1201.4v51.8c0,7.9-6.4,14.3-14.3,14.3h-315.3c-7.9,0-14.3-6.4-14.3-14.3h0s298,0,298,0c7.7,0,14-6.2,14-14v-19.5c0-7.7-6.2-14-14-14h-298v-4.4c0-7.9,6.4-14.3,14.3-14.3h315.3c7.9,0,14.3,6.4,14.3,14.3Z"/><rect width="343.9" height="80.5" x="1457.6" y="1030.6" fill="#41a2f9" rx="14.3" ry="14.3"/><rect width="28.7" height="109.1" x="1503.9" y="1017.3" fill="#fff"/><rect width="28.7" height="109.1" x="1745.3" y="1017.3" fill="#fff"/><rect width="12.1" height="109.1" x="1723.2" y="1017.3" fill="#fff"/><rect width="343.9" height="80.5" x="1490.7" y="1108.8" fill="#ffc933" rx="14.3" ry="14.3"/><path fill="#ffc933" d="M1520.4,994.2h0c0,12.2,9.9,22,22,22h292.1v2.2c0,7.9-6.4,14.3-14.3,14.3h-315.3c-7.9,0-14.3-6.4-14.3-14.3v-51.8c0-7.9,6.4-14.3,14.3-14.3h315.3c7.9,0,14.3,6.4,14.3,14.3v5.5h-292.1c-12.2,0-22,9.9-22,22Z"/><path fill="#ffc933" d="M1586.9,452.3c10.2-47.4-22.1-94.6-72.2-105.4-50.1-10.8-99,18.9-109.2,66.3-5.7,26.4,1.8,52.7,18.2,72.7,8.2,10.1,11.6,23.2,8.9,36l-3.1,14.2,85,18.3,3.1-14.2c2.7-12.7,11.3-23.3,22.9-29.1,23.2-11.5,40.8-32.4,46.5-58.8Z"/><path fill="#422826" d="M1477.2,561.3c0,0-.1,0-.2,0-1.8,0-3.2-1.6-3.1-3.5,1.1-22,4.7-43.9,10.9-65.1.7-2.2,1.4-4.6,2.3-7-5.3-1-10.6-2.5-15.7-4.3.3,4.9.1,10-.3,15.7-1.5,20.3-4.9,40.5-10.1,60.1-.5,1.8-2.3,2.8-4,2.3-1.8-.5-2.8-2.3-2.3-4,5.1-19.2,8.4-39,9.9-58.9.5-6.7.7-12.6,0-18.1-4.7-2.1-9.2-4.6-13.5-7.5-2.5-1.7-5.2-3.6-7-6.3-2.3-3.4-2.9-7.6-1.4-10.9,1.6-3.6,5.4-6.1,9.7-6.4,3.2-.2,6.6.8,10,2.9,6.3,3.9,6.6,9.3,6.8,14.1.1,2.1.2,4.4.8,6.7.2,1,.4,1.9.6,2.9,6.2,2.5,12.7,4.4,19.3,5.6.7-1.3,1.4-2.5,2.3-3.7,4.3-6.1,10.4-9.9,16.7-10.5,3.8-.3,7.3.6,10,2.6,3.3,2.5,5,6.7,4.2,10.4-.7,3.3-3.3,6.2-6.9,7.7-3,1.2-6,1.4-8.7,1.4-4.5,0-9.1-.2-13.6-.7-1,2.6-1.8,5.2-2.6,7.8-6,20.7-9.6,42-10.7,63.5,0,1.8-1.5,3.1-3.3,3.1ZM1496.9,480.5c3.4.3,6.9.5,10.3.4,2,0,4.4-.1,6.3-.9,1.6-.6,2.7-1.8,3-3,.3-1.2-.4-2.8-1.7-3.8-1.3-1-3.3-1.5-5.4-1.3-4.3.4-8.7,3.2-11.9,7.7-.2.3-.4.6-.6.9ZM1453,454c-.1,0-.2,0-.4,0-1.8,0-3.5,1.1-4,2.4-.5,1.3-.2,3.1.8,4.6,1.1,1.7,2.9,3,5.2,4.5,2.7,1.8,5.5,3.4,8.4,4.9-.3-2.1-.4-4-.5-5.8-.2-4.8-.5-6.8-3.7-8.7-2.1-1.3-4.1-2-5.8-2Z"/><path fill="#41a2f9" d="M1475.8,612.7l-34.7-7.5c-16.3-3.5-26.7-19.6-23.2-35.9l8.5-39.5,93.8,20.2-8.5,39.5c-3.5,16.3-19.6,26.7-35.9,23.2Z"/><path fill="#ffc933" d="M1521.8,325.2h0c-4.6-1-7.6-5.6-6.6-10.2l5.7-26.6c1-4.6,5.6-7.6,10.2-6.6h0c4.6,1,7.6,5.6,6.6,10.2l-5.7,26.6c-1,4.6-5.6,7.6-10.2,6.6Z"/><path fill="#ffc933" d="M1623.5,389.6h0c-2.6-4-1.4-9.3,2.6-11.9l22.8-14.7c4-2.6,9.3-1.4,11.9,2.6h0c2.6,4,1.4,9.3-2.6,11.9l-22.8,14.7c-4,2.6-9.3,1.4-11.9-2.6Z"/><path fill="#ffc933" d="M1604.9,501.7h0c-4,2.6-5.1,7.9-2.6,11.9l14.7,22.8c2.6,4,7.9,5.1,11.9,2.6h0c4-2.6,5.1-7.9,2.6-11.9l-14.7-22.8c-2.6-4-7.9-5.1-11.9-2.6Z"/><path fill="#ffc933" d="M1399.2,341.3h0c4-2.6,5.1-7.9,2.6-11.9l-14.7-22.8c-2.6-4-7.9-5.1-11.9-2.6h0c-4,2.6-5.1,7.9-2.6,11.9l14.7,22.8c2.6,4,7.9,5.1,11.9,2.6Z"/><path fill="#ffc933" d="M1370,451.1h0c2.6,4,1.4,9.3-2.6,11.9l-22.8,14.7c-4,2.6-9.3,1.4-11.9-2.6h0c-2.6-4-1.4-9.3,2.6-11.9l22.8-14.7c4-2.6,9.3-1.4,11.9,2.6Z"/><path fill="#422826" d="M718.2,978.6c-1,0-2-.5-2.6-1.2-.8-.9-.9-2.2-.5-3.3l23.2-55c.7-1.7,2.7-2.5,4.3-1.8,1.7.7,2.5,2.6,1.8,4.3l-20.8,49.4,160.8-28.1c1.8-.3,3.5.9,3.8,2.7.3,1.8-.9,3.5-2.7,3.8l-166.8,29.1c-.2,0-.4,0-.6,0Z"/><path fill="#422826" d="M615.1,1202c-1.8,0-3.3-1.5-3.3-3.3s1.5-3.3,3.3-3.3c83.5,0,144-23.8,144.6-24.1,1.7-.7,3.6.1,4.3,1.8.7,1.7-.1,3.6-1.8,4.3-.6.2-62.1,24.6-147,24.6Z"/><path fill="#422826" d="M1091.6,978.8c-1.1,0-2.1-.5-2.8-1.5-5.4-8.1-20.1-19.6-59.7-28.4-1.8-.4-2.9-2.2-2.5-3.9.4-1.8,2.2-2.9,3.9-2.5,33.5,7.4,54.9,17.9,63.8,31.2,1,1.5.6,3.6-.9,4.6-.6.4-1.2.6-1.8.6Z"/><path fill="#422826" d="M1091.6,1020.7c-1.1,0-2.1-.5-2.8-1.5-5.4-8.1-20.1-19.6-59.7-28.4-1.8-.4-2.9-2.2-2.5-3.9.4-1.8,2.2-2.9,3.9-2.5,33.5,7.4,54.9,17.9,63.8,31.2,1,1.5.6,3.6-.9,4.6-.6.4-1.2.6-1.8.6Z"/><path fill="#422826" d="M999,1050.4c-1.3,0-2.5-.8-3.1-2-.7-1.7,0-3.6,1.8-4.3l30.9-12.9c1.7-.7,3.6,0,4.3,1.8.7,1.7,0,3.6-1.8,4.3l-30.9,12.9c-.4.2-.9.3-1.3.3Z"/><circle cx="1532.5" cy="1148.5" r="11" fill="#41a2f9" transform="rotate(-76.7 1533 1148.538)"/><circle cx="1785" cy="1148.5" r="11" fill="#41a2f9" transform="rotate(-22.5 1784.983 1148.4)"/><path fill="#41a2f9" d="M1735.1,1151.8h-160.6c-1.8,0-3.3-1.5-3.3-3.3s1.5-3.3,3.3-3.3h160.6c1.8,0,3.3,1.5,3.3,3.3s-1.5,3.3-3.3,3.3Z"/><g><path fill="#422826" d="M340,1084c-.7-52.7,21.9-84.1,69.7-94.9,47.9-10.7,24.5-55.2,61-75.6,36.5-20.4,60.2-29.5,77.4-22.1s-22.8,15.7-20.1,53c2.8,37.3-8.6,62.3-30.6,72.6-22,10.3-27.3,42.1-27.1,64.1.3,22-35.2,58.7-91.2,51.5-56-7.2-39.2-48.8-39.2-48.8Z"/><path fill="#ffc933" d="M387.6,1101.7c-.2,0-.5,0-.7,0-1.8-.4-2.9-2.2-2.5-4,8.3-36.7,95.8-171.6,145.3-197.8,1.6-.9,3.6-.2,4.5,1.4.9,1.6.2,3.6-1.4,4.5-21.2,11.3-52.7,45.4-86.2,93.6-28.4,40.9-51.9,82.8-55.7,99.8-.3,1.5-1.7,2.6-3.2,2.6Z"/><path fill="#422826" d="M391.8,1097.2c-8.4-52-36-79.1-85-81.4-49-2.3-33.6-50.2-73.1-63.9-39.5-13.8-64.3-18.7-80.1-8.4-15.7,10.3,25.2,11.5,28.9,48.8,3.7,37.3,19.2,59.8,42.6,66.2,23.4,6.4,34.2,36.8,37.7,58.5s44.7,51.8,98.7,35c54-16.7,30.2-54.8,30.2-54.8Z"/><path fill="#ffc933" d="M350.2,1142.9c-1.7,0-3.1-1.3-3.3-2.9-4.2-37.8-28.9-73.1-62.9-90-3.6-1.8-7.3-3.4-11-5-10-4.3-20.3-8.8-28.4-16.6-9-8.7-14.1-20.2-19-31.3-1.1-2.6-2.3-5.3-3.5-7.8-7.7-16.6-16.7-26.2-27.4-29.2-1.8-.5-2.8-2.3-2.3-4.1.5-1.8,2.3-2.8,4.1-2.3,12.7,3.6,23,14.3,31.6,32.8,1.2,2.6,2.4,5.3,3.6,8,4.6,10.5,9.4,21.4,17.5,29.2,7.3,7,16.6,11,26.5,15.3,3.7,1.6,7.6,3.3,11.3,5.1,36,17.9,62.2,55.3,66.6,95.2.2,1.8-1.1,3.4-2.9,3.6-.1,0-.2,0-.4,0Z"/><path fill="#422826" d="M306,1083.8c-23.7-39.2-35.8-97.4-10-128.4,31-37.3,15.2-74.3,21.9-103.8,10.9-48.3,64.7-57.4,92.9-55.6,28.2,1.8-16.4,54.6-3.6,83.8,12.8,29.1,17.3,91.1-10,112.9-27.3,21.9,3.6,105.7,3.6,105.7l-94.7-14.6Z"/><path fill="#ffc933" d="M364.5,1122.7c-1.1,0-2.1-.5-2.8-1.5-31.3-48.2-38.3-109.9-17.8-157.1,7.9-18.2,8.3-36.4,8.7-54,.6-28.4,1.3-57.7,32.6-87.9,1.3-1.3,3.4-1.2,4.7,0,1.3,1.3,1.2,3.4,0,4.7-29.3,28.3-30,55-30.6,83.3-.4,18.2-.8,37-9.3,56.5-9.8,22.6-13.2,49.1-9.7,76.6,3.3,26.5,12.7,52.2,27,74.2,1,1.5.6,3.6-1,4.6-.6.4-1.2.5-1.8.5Z"/><polygon fill="#ffc933" points="473.3 1274.2 255.6 1274.2 213.8 1109.3 515.2 1109.3 473.3 1274.2"/><rect width="333.4" height="58.3" x="197.8" y="1082.9" fill="#ffc933" rx="15.3" ry="15.3"/><path fill="#422826" d="M507.1,1144.5H230.3c-1.8,0-3.3-1.5-3.3-3.3s1.5-3.3,3.3-3.3h276.8c1.8,0,3.3,1.5,3.3,3.3s-1.5,3.3-3.3,3.3Z"/></g><rect width="1650.1" height="28.7" x="199.9" y="1261" fill="#422826" rx="14.3" ry="14.3"/><circle cx="419.8" cy="683.9" r="19.3" fill="#ffc933" transform="rotate(-81.7 419.392 683.813)"/><circle cx="1685.8" cy="784.8" r="9.9" fill="#ffc933"/><circle cx="709.1" cy="264.5" r="9.9" fill="#ffc933" transform="rotate(-37.8 710.205 264.531)"/></svg>